<svg width="56" height="71" viewBox="0 0 56 71" fill="none" xmlns="http://www.w3.org/2000/svg">
<path d="M52.5989 22.8317C52.083 22.6501 51.5289 22.5546 50.9509 22.5546C49.5178 22.5546 48.2233 23.1589 47.3038 24.119C47.3038 24.119 47.3038 24.1166 47.3038 24.1142C47.299 24.119 47.2966 24.1238 47.2918 24.1286C47.0578 24.3722 47.0052 24.4271 46.9909 24.4677C47.3229 24.334 47.6883 24.2647 48.0513 24.248C48.5529 24.2313 49.0592 24.3077 49.5369 24.4606C50.4995 24.7615 51.3712 25.3347 52.0519 26.0895C52.3863 26.474 52.6729 26.9015 52.8831 27.3697C53.0861 27.8402 53.2247 28.3441 53.2485 28.8553C53.3178 29.8823 52.9452 30.8806 52.3624 31.6473C52.7159 30.7445 52.9022 29.8058 52.7541 28.9054C52.6108 28.0098 52.1809 27.1834 51.5743 26.5098C50.9748 25.8291 50.2081 25.287 49.365 24.9239C48.5816 24.5967 47.7122 24.4223 46.838 24.5991C44.8795 25.2917 43.4751 27.1547 43.4751 29.352C43.4751 31.1219 44.3875 32.6791 45.768 33.5796C44.4496 34.6687 42.1973 36.3573 40.5278 36.7538C40.5278 36.7538 40.0501 36.8302 39.5533 36.9926C39.742 35.4831 39.5247 33.8972 38.961 32.6075C38.4308 31.3918 37.5232 30.5295 36.4364 29.9778C36.4603 28.8242 36.2716 27.6993 35.9277 26.9111C35.0631 24.9287 33.2431 24.0689 31.2918 23.6963C31.1246 22.7099 30.8046 21.7975 30.3961 21.1598C29.6915 20.0611 28.6048 19.1798 27.3819 18.6686C27.4536 18.4298 27.6781 18.1886 28.3779 18.6424L30.0546 19.7649C30.0546 19.7649 32.0418 20.9974 32.7033 19.4138L34.2701 16.6886C34.2701 16.6886 35.6315 17.3885 35.9277 16.8726C35.9277 16.8726 35.8967 15.8861 36.0018 14.7373C36.0877 13.7724 37.2557 12.2701 37.676 11.2383C37.676 11.2383 37.8862 10.7725 38.0892 10.0441C38.3185 9.22005 38.5406 8.05211 38.4356 6.83163C38.3758 6.15093 38.2134 5.45351 37.891 4.78714C37.891 4.78714 37.7334 4.23064 37.1769 3.48545C36.6872 2.62801 35.9205 1.8661 35.0798 1.31916C32.5887 -0.302581 29.2664 -0.355127 26.5532 0.757877C23.4721 2.02135 21.1649 8.09988 21.4109 12.0002C20.8496 12.325 20.3528 12.6498 19.9826 12.9006C19.3377 13.3377 18.6833 13.8488 18.0647 14.4173C16.357 14.3384 14.6278 14.5152 12.9917 15.0072C11.038 15.5924 9.11531 16.7794 7.74197 18.3653C6.50954 18.6949 5.31055 19.4043 4.38385 20.1089C2.47311 21.561 1.05678 23.5912 0.407125 25.9079C-0.450318 28.9627 -0.0514515 34.3749 2.54954 37.0165C0.342638 39.2879 -0.18998 42.8777 0.5361 46.1379C1.08544 48.5979 2.38951 50.8693 3.75091 52.9592C4.43161 54.0029 5.24845 55.0108 5.78585 56.1358C5.89572 56.3651 5.9817 56.6063 6.06052 56.8475C6.12262 57.502 6.14172 58.1755 6.09873 58.861C6.09873 58.861 6.01514 59.6253 5.98648 60.5377C5.98409 60.5496 5.98409 60.5592 5.98409 60.5735V60.595H5.9817C5.92677 60.8983 5.90527 61.2327 5.90527 61.5551C5.90527 61.9014 5.93632 62.2502 6.00081 62.5917C6.06052 62.938 6.17277 63.2724 6.31608 63.5948C6.45938 63.9197 6.66718 64.2134 6.89646 64.4881C6.62896 64.2493 6.3734 63.9841 6.17755 63.6737C5.97931 63.3608 5.81212 63.0264 5.6927 62.6777C5.57089 62.3242 5.48491 61.9612 5.42759 61.5933C5.37743 61.2184 5.34399 60.8553 5.36071 60.4541C5.36071 60.4541 5.20785 60.4278 5.08365 60.4182C1.76614 60.2104 0.786884 63.7931 1.24785 65.7468C1.78524 68.0062 3.70315 70.3803 5.8981 70.3851C7.99514 70.3875 9.33026 69.2649 9.81989 68.7467H9.82228C10.5388 68.1137 10.8374 67.027 10.577 65.7253C11.4966 66.5254 12.5833 67.0151 13.7082 67.0151C15.5736 67.0151 17.064 66.0931 17.7041 65.7062C17.7232 65.6966 17.7423 65.6847 17.7614 65.6751C17.8187 65.6393 17.8689 65.6107 17.9071 65.5892C18.1913 65.4387 18.3274 65.3097 18.3633 65.1784C19.0822 64.3567 19.2924 63.0264 18.8123 61.4787C18.7359 61.2231 18.6332 60.9747 18.5257 60.7311C18.6045 60.7622 18.6809 60.7908 18.7621 60.8243C18.9365 60.8935 19.1156 60.958 19.2948 61.0225C19.3139 61.0297 19.3306 61.0344 19.3497 61.0416C19.3569 61.0488 19.3616 61.0488 19.3712 61.0512C19.5217 61.1061 19.6745 61.1586 19.8298 61.2112C19.8393 61.2136 19.8489 61.2184 19.8584 61.2207C19.985 61.2661 20.1164 61.3091 20.2477 61.3473C20.2645 61.3545 20.2764 61.3593 20.2931 61.364C20.4651 61.419 20.637 61.4715 20.8114 61.5241C21.0431 61.5933 21.2795 61.6602 21.5184 61.7247C21.5494 61.7343 21.5829 61.7438 21.6139 61.751C21.8408 61.8107 22.0725 61.868 22.3018 61.9229C22.5239 61.9779 22.7508 62.0256 22.9777 62.0734C23.0422 62.0901 23.1019 62.1021 23.1664 62.1116C23.3861 62.157 23.6059 62.1976 23.8256 62.2358C24.0191 62.2716 24.2149 62.3027 24.4084 62.3314C24.4872 62.3481 24.5708 62.36 24.6544 62.3696L24.7117 62.3791C24.9195 62.4078 25.1297 62.4341 25.3351 62.4579C25.3613 62.4603 25.3852 62.4651 25.4115 62.4675H25.4139C25.6312 62.4938 25.8462 62.5153 26.0635 62.5344C26.0922 62.5368 26.1185 62.5368 26.1471 62.5415C26.1639 62.5439 26.1782 62.5487 26.1973 62.5487C26.4361 62.5678 26.6726 62.5869 26.9114 62.5989C26.9425 62.6013 26.9759 62.606 27.007 62.606C27.2577 62.6227 27.5109 62.6323 27.7617 62.6371C28.0292 62.6466 28.2967 62.649 28.5666 62.649C33.4342 62.649 37.9985 61.3688 41.9441 59.1285C40.0382 56.6899 37.4276 54.9822 34.3108 50.0071C33.9883 48.629 29.8253 43.2073 29.5841 41.4757C29.7966 40.2026 29.2497 38.8006 28.9416 38.6C28.9416 38.6 29.8802 37.0595 29.7632 35.87C29.8778 36.5173 30.1525 38.0531 30.2672 38.3421C30.2672 38.3421 30.967 43.4604 35.4978 45.4476C35.4978 45.4476 37.0144 46.1737 38.5048 45.6339C40.4394 46.2501 42.8016 45.1992 44.151 43.6802C45.1303 42.5767 45.7608 41.3037 46.3675 39.9734C46.6828 39.2831 47.0793 38.5618 47.373 37.8214C48.0131 36.8063 48.6628 35.6551 49.3076 34.3438C50.6356 34.1408 51.794 33.4148 52.5631 32.3853C53.6761 32.0104 54.6171 31.258 55.2262 30.2835C55.7158 29.5073 56 28.5878 56 27.6037C56 25.3944 54.5837 23.5195 52.6037 22.8364L52.5989 22.8317ZM13.6748 53.0237C13.2138 54.0364 12.9081 55.1231 12.7362 56.2433C12.7123 56.2433 12.686 56.2409 12.6621 56.2409C12.686 56.2409 12.7123 56.2409 12.7362 56.2433C12.7362 56.2433 12.7362 56.2457 12.7362 56.2481C12.1104 56.2433 11.6876 56.3699 11.3652 56.5156C11.2314 56.5753 11.1144 56.6398 11.0045 56.6971C10.8899 56.7377 10.7776 56.7831 10.6702 56.8308C10.5579 57.0052 10.4528 57.201 10.3645 57.3921C10.2403 57.6596 10.1352 57.9367 10.0587 58.2209C9.98947 58.5075 9.94648 58.8013 9.94648 59.0998C9.95364 59.3984 10.0134 59.6945 10.1208 59.9812C9.96558 59.7208 9.84616 59.427 9.78645 59.1189C9.73152 58.806 9.71958 58.4884 9.74585 58.1707C9.77212 57.8531 9.83183 57.5402 9.91543 57.2321C9.97514 57.0147 10.042 56.8117 10.128 56.6015C9.95364 56.1931 9.78884 55.7728 9.63359 55.35C9.68136 54.6621 9.74107 53.9695 9.93215 53.3127C10.4839 51.4043 10.6821 49.4124 10.8899 47.4372C11.1622 44.8696 10.46 42.7177 8.92662 41.072C9.13203 40.6756 9.38998 40.1095 9.62165 39.4192C10.1996 40.4391 10.878 41.3849 11.4775 42.1683C12.2298 43.1547 13.1279 44.1388 14.1501 44.9389C14.1811 45.8632 13.9519 46.7732 13.9399 47.6951C13.928 48.4045 14.1668 50.4179 14.3555 51.7769C14.0904 52.1949 13.8587 52.6153 13.67 53.0261L13.6748 53.0237Z" fill="#E2181A"/>
</svg>
