<svg width="80" height="80" viewBox="0 0 80 80" fill="none" xmlns="http://www.w3.org/2000/svg">
<path d="M66.6667 51.6666L52.7867 43.7333L50.305 42.705H41.6683V63.3316H30.0017C29.08 63.3316 28.335 64.0783 28.335 64.9983C28.335 65.9183 29.08 66.665 30.0017 66.665H42.8917L60.3933 76.6666H50C49.0783 76.6666 48.3333 77.4133 48.3333 78.3333C48.3333 79.2533 49.0783 80 50 80H66.6667C67.5883 80 68.3333 79.2533 68.3333 78.3333V53.3333C68.3333 52.4133 67.5883 51.6666 66.6667 51.6666ZM65 75.4616L45 64.0316V47.6166L65 59.0466V75.4616ZM59.2983 22.3383L71.3833 24.7416C73.1883 25.1016 74.3617 26.855 74.0017 28.6616C73.6433 30.4666 71.8883 31.64 70.0817 31.28C70.0817 31.28 58.555 28.99 57.005 28.68C56.38 28.5566 55.7833 28.25 55.2983 27.765L52.9417 25.4083C54.7483 23.6016 55.7183 21.2666 55.85 18.895H55.855L59.2983 22.3383ZM30.7083 42.665L27.1417 51.2766C26.61 52.56 25.3683 53.3316 24.06 53.3316C20.305 53.3333 8.33333 53.3316 8.33333 53.3316C6.49167 53.3316 5 51.8383 5 49.9983C5 48.1583 6.49333 46.665 8.33333 46.665L21.8333 46.6683L24.615 39.9516C26.2883 41.5416 28.4183 42.4883 30.7083 42.665ZM70.5783 43.8866C69.8733 45.5883 67.9233 46.395 66.2233 45.69L50.9683 39.3716L31.5683 39.37C29.84 39.3866 28.1067 38.7416 26.7883 37.4233C24.185 34.82 24.185 30.5983 26.7883 27.995L36.445 18.3383H33.575L23.33 25.1833C21.8 26.2066 19.73 25.795 18.7067 24.2633C17.6833 22.7333 18.095 20.6633 19.6267 19.64C19.6267 19.64 29.175 13.26 30.705 12.2383C31.235 11.8833 31.88 11.6716 32.565 11.6716H45.8983C47.5967 11.6783 49.2933 12.3283 50.5883 13.625C53.1917 16.2283 53.1917 20.45 50.5883 23.0533L44.2667 29.375L35 29.3766C34.0783 29.3766 33.3333 30.1233 33.3333 31.0433C33.3333 31.9633 34.08 32.71 35 32.71L51.6583 32.7083C52.1 32.7116 52.52 32.8016 52.905 32.96C54.9017 33.7866 68.7733 39.5316 68.7733 39.5316C70.475 40.2366 71.2817 42.1866 70.5783 43.8866ZM50.585 13.625C47.9817 11.0216 47.9817 6.79997 50.585 4.19664C53.1883 1.59331 57.41 1.59331 60.0133 4.19664C62.6167 6.79997 62.6167 11.0216 60.0133 13.625C57.41 16.2283 53.1883 16.2283 50.585 13.625Z" fill="#E2181A"/>
</svg>
