<svg width="80" height="72" viewBox="0 0 80 72" fill="none" xmlns="http://www.w3.org/2000/svg">
<path d="M79.8172 30.2238L69.0914 4.58815C68.2416 2.55706 66.2519 1.2344 64.0462 1.2344H61.6527C58.8731 1.2344 56.62 3.483 56.62 6.25675C56.62 9.0305 58.8733 11.2791 61.6527 11.2791H61.9078L67.433 26.3461C62.5292 22.9758 57.575 23.0422 52.5731 26.3461H40.7494C46.1645 25.9682 50.5292 21.4614 50.5292 15.8361V10.9924C50.5292 5.18112 45.8058 0.453308 39.9997 0.453308H28.2917C26.9984 0.453308 25.9502 1.50268 25.9502 2.79706C25.9502 4.09143 26.9986 5.14081 28.2917 5.14081H29.4703V15.7013C29.4703 21.2916 33.8 25.9466 39.2363 26.3461H27.4264C22.4245 23.0422 17.4703 22.9758 12.5666 26.3461L18.0917 11.2791H18.3469C21.1264 11.2791 23.3795 9.0305 23.3795 6.25675C23.3795 3.483 21.1263 1.2344 18.3469 1.2344H15.9534C13.7478 1.2344 11.7583 2.55706 10.9084 4.58815L0.182503 30.2238C-0.132341 30.9761 -0.0367162 31.8408 0.44219 32.5008C4.84485 38.5674 11.5755 41.4432 20.4266 41.413L26.5794 61.5107V69.9844C26.5794 70.8474 27.2783 71.5469 28.1405 71.5469H51.8594C52.7216 71.5469 53.4205 70.8474 53.4205 69.9844V61.5107L59.5733 41.413C68.4244 41.4432 75.155 38.5672 79.5577 32.5008C80.0364 31.8408 80.1319 30.9761 79.8172 30.2238ZM43.1142 63.5782H36.87C35.5767 63.5782 34.5284 62.5288 34.5284 61.2344C34.5284 59.94 35.5769 58.8907 36.87 58.8907H43.1142C44.4075 58.8907 45.4558 59.94 45.4558 61.2344C45.4558 62.5288 44.4075 63.5782 43.1142 63.5782ZM45.4636 54.2032H34.5439C33.2506 54.2032 32.2023 53.1538 32.2023 51.8594C32.2023 50.565 33.2508 49.5157 34.5439 49.5157H45.4636C46.7569 49.5157 47.8052 50.565 47.8052 51.8594C47.8052 53.1538 46.7569 54.2032 45.4636 54.2032Z" fill="#E2181A"/>
</svg>
