<svg width="206" height="71" viewBox="0 0 206 71" fill="none" xmlns="http://www.w3.org/2000/svg">
<path d="M78.3658 54.0719V43.9009H82.812C83.9163 43.9009 84.8849 44.114 85.718 44.5402C86.5511 44.9664 87.2001 45.5573 87.665 46.3129C88.13 47.0685 88.3625 47.9596 88.3625 48.9864C88.3625 50.0035 88.13 50.8947 87.665 51.6599C87.2001 52.4155 86.5511 53.0064 85.718 53.4326C84.8849 53.8588 83.9163 54.0719 82.812 54.0719H78.3658ZM80.2547 52.4736H82.7248C83.4901 52.4736 84.1488 52.3283 84.7009 52.0377C85.2627 51.7471 85.6938 51.3403 85.9941 50.8172C86.304 50.2941 86.459 49.6839 86.459 48.9864C86.459 48.2793 86.304 47.669 85.9941 47.1556C85.6938 46.6326 85.2627 46.2257 84.7009 45.9351C84.1488 45.6445 83.4901 45.4992 82.7248 45.4992H80.2547V52.4736ZM92.1137 48.1291H97.1701V49.6839H92.1137V48.1291ZM92.259 52.4881H97.9983V54.0719H90.3701V43.9009H97.7949V45.4847H92.259V52.4881ZM104.12 54.0719V43.9009H105.674L110.121 51.3257H109.307L113.68 43.9009H115.235L115.25 54.0719H113.462L113.448 46.7052H113.826L110.106 52.9095H109.263L105.485 46.7052H105.921V54.0719H104.12ZM122.763 54.2172C121.968 54.2172 121.237 54.0864 120.569 53.8249C119.9 53.5634 119.319 53.2001 118.825 52.7352C118.331 52.2605 117.949 51.7084 117.677 51.0787C117.406 50.4394 117.27 49.742 117.27 48.9864C117.27 48.2309 117.406 47.5383 117.677 46.9086C117.949 46.2693 118.331 45.7172 118.825 45.2522C119.319 44.7776 119.9 44.4095 120.569 44.1479C121.237 43.8864 121.964 43.7556 122.748 43.7556C123.543 43.7556 124.269 43.8864 124.928 44.1479C125.596 44.4095 126.177 44.7776 126.671 45.2522C127.165 45.7172 127.548 46.2693 127.819 46.9086C128.09 47.5383 128.226 48.2309 128.226 48.9864C128.226 49.742 128.09 50.4394 127.819 51.0787C127.548 51.7181 127.165 52.2702 126.671 52.7352C126.177 53.2001 125.596 53.5634 124.928 53.8249C124.269 54.0864 123.547 54.2172 122.763 54.2172ZM122.748 52.5608C123.262 52.5608 123.736 52.4736 124.172 52.2993C124.608 52.1249 124.986 51.8779 125.306 51.5582C125.625 51.2289 125.872 50.8511 126.047 50.4249C126.231 49.989 126.323 49.5095 126.323 48.9864C126.323 48.4633 126.231 47.9887 126.047 47.5625C125.872 47.1266 125.625 46.7488 125.306 46.4291C124.986 46.0998 124.608 45.8479 124.172 45.6736C123.736 45.4992 123.262 45.412 122.748 45.412C122.235 45.412 121.76 45.4992 121.324 45.6736C120.898 45.8479 120.52 46.0998 120.191 46.4291C119.871 46.7488 119.619 47.1266 119.435 47.5625C119.261 47.9887 119.174 48.4633 119.174 48.9864C119.174 49.4998 119.261 49.9745 119.435 50.4104C119.619 50.8463 119.871 51.2289 120.191 51.5582C120.511 51.8779 120.888 52.1249 121.324 52.2993C121.76 52.4736 122.235 52.5608 122.748 52.5608ZM130.228 54.0719V43.9009H131.783L138.162 51.7326H137.392V43.9009H139.266V54.0719H137.711L131.333 46.2402H132.103V54.0719H130.228ZM145.144 54.2172C144.35 54.2172 143.59 54.1058 142.863 53.883C142.137 53.6505 141.56 53.3551 141.134 52.9967L141.788 51.5292C142.195 51.8488 142.698 52.1152 143.299 52.3283C143.9 52.5414 144.515 52.648 145.144 52.648C145.677 52.648 146.108 52.5899 146.438 52.4736C146.767 52.3574 147.009 52.2024 147.164 52.0087C147.319 51.8052 147.396 51.5776 147.396 51.3257C147.396 51.0158 147.285 50.7688 147.062 50.5847C146.84 50.391 146.549 50.2408 146.19 50.1343C145.842 50.018 145.449 49.9115 145.014 49.8146C144.587 49.7178 144.156 49.6064 143.72 49.4804C143.294 49.3448 142.902 49.1753 142.543 48.9719C142.195 48.7588 141.909 48.4779 141.686 48.1291C141.463 47.7804 141.352 47.3348 141.352 46.7924C141.352 46.2402 141.497 45.7365 141.788 45.2813C142.088 44.8163 142.539 44.4482 143.139 44.177C143.749 43.8961 144.52 43.7556 145.449 43.7556C146.06 43.7556 146.665 43.8331 147.266 43.9881C147.866 44.1431 148.389 44.3659 148.835 44.6565L148.239 46.124C147.784 45.8528 147.314 45.6542 146.83 45.5283C146.345 45.3927 145.881 45.3249 145.435 45.3249C144.912 45.3249 144.486 45.3878 144.156 45.5137C143.837 45.6397 143.599 45.8043 143.444 46.0078C143.299 46.2112 143.226 46.4437 143.226 46.7052C143.226 47.0152 143.333 47.267 143.546 47.4608C143.769 47.6448 144.055 47.7901 144.403 47.8967C144.762 48.0032 145.159 48.1098 145.595 48.2163C146.031 48.3132 146.462 48.4246 146.888 48.5505C147.324 48.6764 147.716 48.8411 148.065 49.0445C148.423 49.248 148.709 49.524 148.922 49.8727C149.145 50.2215 149.256 50.6622 149.256 51.195C149.256 51.7374 149.106 52.2411 148.806 52.7061C148.515 53.1614 148.065 53.5295 147.455 53.8104C146.844 54.0816 146.074 54.2172 145.144 54.2172ZM153.051 54.0719V45.4992H149.68V43.9009H158.311V45.4992H154.94V54.0719H153.051ZM159.728 54.0719V43.9009H163.913C164.814 43.9009 165.584 44.0462 166.223 44.3368C166.872 44.6274 167.371 45.0439 167.72 45.5864C168.068 46.1288 168.243 46.773 168.243 47.5189C168.243 48.2648 168.068 48.9089 167.72 49.4514C167.371 49.9841 166.872 50.3958 166.223 50.6864C165.584 50.9673 164.814 51.1078 163.913 51.1078H160.774L161.617 50.2505V54.0719H159.728ZM166.383 54.0719L163.811 50.3813H165.831L168.417 54.0719H166.383ZM161.617 50.4539L160.774 49.5531H163.826C164.659 49.5531 165.283 49.3739 165.7 49.0155C166.126 48.6571 166.339 48.1582 166.339 47.5189C166.339 46.8699 166.126 46.371 165.7 46.0223C165.283 45.6736 164.659 45.4992 163.826 45.4992H160.774L161.617 44.5693V50.4539ZM175.122 54.2172C174.328 54.2172 173.596 54.0864 172.928 53.8249C172.259 53.5634 171.678 53.2001 171.184 52.7352C170.69 52.2605 170.308 51.7084 170.036 51.0787C169.765 50.4394 169.63 49.742 169.63 48.9864C169.63 48.2309 169.765 47.5383 170.036 46.9086C170.308 46.2693 170.69 45.7172 171.184 45.2522C171.678 44.7776 172.259 44.4095 172.928 44.1479C173.596 43.8864 174.323 43.7556 175.107 43.7556C175.902 43.7556 176.628 43.8864 177.287 44.1479C177.955 44.4095 178.536 44.7776 179.03 45.2522C179.524 45.7172 179.907 46.2693 180.178 46.9086C180.45 47.5383 180.585 48.2309 180.585 48.9864C180.585 49.742 180.45 50.4394 180.178 51.0787C179.907 51.7181 179.524 52.2702 179.03 52.7352C178.536 53.2001 177.955 53.5634 177.287 53.8249C176.628 54.0864 175.906 54.2172 175.122 54.2172ZM175.107 52.5608C175.621 52.5608 176.095 52.4736 176.531 52.2993C176.967 52.1249 177.345 51.8779 177.665 51.5582C177.984 51.2289 178.231 50.8511 178.406 50.4249C178.59 49.989 178.682 49.5095 178.682 48.9864C178.682 48.4633 178.59 47.9887 178.406 47.5625C178.231 47.1266 177.984 46.7488 177.665 46.4291C177.345 46.0998 176.967 45.8479 176.531 45.6736C176.095 45.4992 175.621 45.412 175.107 45.412C174.594 45.412 174.119 45.4992 173.683 45.6736C173.257 45.8479 172.879 46.0998 172.55 46.4291C172.23 46.7488 171.979 47.1266 171.795 47.5625C171.62 47.9887 171.533 48.4633 171.533 48.9864C171.533 49.4998 171.62 49.9745 171.795 50.4104C171.979 50.8463 172.23 51.2289 172.55 51.5582C172.87 51.8779 173.248 52.1249 173.683 52.2993C174.119 52.4736 174.594 52.5608 175.107 52.5608ZM185.74 54.2172C184.946 54.2172 184.186 54.1058 183.459 53.883C182.733 53.6505 182.156 53.3551 181.73 52.9967L182.384 51.5292C182.791 51.8488 183.294 52.1152 183.895 52.3283C184.496 52.5414 185.111 52.648 185.74 52.648C186.273 52.648 186.704 52.5899 187.034 52.4736C187.363 52.3574 187.605 52.2024 187.76 52.0087C187.915 51.8052 187.993 51.5776 187.993 51.3257C187.993 51.0158 187.881 50.7688 187.658 50.5847C187.436 50.391 187.145 50.2408 186.787 50.1343C186.438 50.018 186.045 49.9115 185.61 49.8146C185.183 49.7178 184.752 49.6064 184.316 49.4804C183.89 49.3448 183.498 49.1753 183.139 48.9719C182.791 48.7588 182.505 48.4779 182.282 48.1291C182.059 47.7804 181.948 47.3348 181.948 46.7924C181.948 46.2402 182.093 45.7365 182.384 45.2813C182.684 44.8163 183.135 44.4482 183.735 44.177C184.345 43.8961 185.116 43.7556 186.045 43.7556C186.656 43.7556 187.261 43.8331 187.862 43.9881C188.462 44.1431 188.985 44.3659 189.431 44.6565L188.835 46.124C188.38 45.8528 187.91 45.6542 187.426 45.5283C186.942 45.3927 186.477 45.3249 186.031 45.3249C185.508 45.3249 185.082 45.3878 184.752 45.5137C184.433 45.6397 184.195 45.8043 184.04 46.0078C183.895 46.2112 183.822 46.4437 183.822 46.7052C183.822 47.0152 183.929 47.267 184.142 47.4608C184.365 47.6448 184.651 47.7901 184.999 47.8967C185.358 48.0032 185.755 48.1098 186.191 48.2163C186.627 48.3132 187.058 48.4246 187.484 48.5505C187.92 48.6764 188.312 48.8411 188.661 49.0445C189.019 49.248 189.305 49.524 189.518 49.8727C189.741 50.2215 189.852 50.6622 189.852 51.195C189.852 51.7374 189.702 52.2411 189.402 52.7061C189.111 53.1614 188.661 53.5295 188.051 53.8104C187.44 54.0816 186.67 54.2172 185.74 54.2172Z" fill="white"/>
<path d="M69.1018 26.3371H79.3431V30.2995H69.1018V26.3371ZM69.4676 38.0719H64.5298V16.7359H80.6538V20.6983H69.4676V38.0719ZM80.3292 38.0719L89.839 16.7359H94.7158L104.256 38.0719H99.0744L91.2715 19.2353H93.2222L85.3889 38.0719H80.3292ZM85.0841 33.4999L86.3947 29.7509H97.3675L98.7086 33.4999H85.0841ZM89.5037 14.9986L93.6185 10.6094H98.7391L93.2222 14.9986H89.5037ZM106.47 38.0719V16.7359H116.894C119.576 16.7359 121.588 17.2439 122.929 18.2599C124.29 19.2759 124.971 20.617 124.971 22.2833C124.971 23.4009 124.697 24.3762 124.148 25.2094C123.599 26.0222 122.848 26.6521 121.892 27.0991C120.937 27.5462 119.84 27.7697 118.601 27.7697L119.18 26.52C120.521 26.52 121.71 26.7435 122.746 27.1906C123.782 27.6173 124.585 28.2574 125.154 29.1108C125.743 29.9642 126.038 31.0107 126.038 32.2502C126.038 34.079 125.316 35.5116 123.874 36.5479C122.431 37.5639 120.308 38.0719 117.503 38.0719H106.47ZM111.377 34.3534H117.138C118.418 34.3534 119.383 34.1502 120.033 33.7438C120.704 33.317 121.039 32.6465 121.039 31.7321C121.039 30.838 120.704 30.1776 120.033 29.7509C119.383 29.3038 118.418 29.0803 117.138 29.0803H111.011V25.4837H116.284C117.483 25.4837 118.397 25.2805 119.027 24.8741C119.678 24.4474 120.003 23.8073 120.003 22.9538C120.003 22.1207 119.678 21.501 119.027 21.0946C118.397 20.6678 117.483 20.4545 116.284 20.4545H111.377V34.3534ZM129.776 38.0719V16.7359H139.012C140.922 16.7359 142.568 17.0509 143.949 17.6808C145.331 18.2904 146.398 19.1743 147.15 20.3326C147.902 21.4908 148.277 22.8726 148.277 24.4778C148.277 26.0628 147.902 27.4344 147.15 28.5926C146.398 29.7306 145.331 30.6043 143.949 31.2139C142.568 31.8235 140.922 32.1283 139.012 32.1283H132.519L134.714 29.9642V38.0719H129.776ZM143.34 38.0719L138.006 30.33H143.279L148.674 38.0719H143.34ZM134.714 30.5129L132.519 28.1964H138.737C140.261 28.1964 141.399 27.8713 142.151 27.221C142.903 26.5505 143.279 25.6361 143.279 24.4778C143.279 23.2993 142.903 22.3849 142.151 21.7346C141.399 21.0844 140.261 20.7593 138.737 20.7593H132.519L134.714 18.4123V30.5129ZM152.19 38.0719V16.7359H157.127V38.0719H152.19ZM172.402 38.4377C170.756 38.4377 169.222 38.1735 167.799 37.6452C166.397 37.0966 165.178 36.3244 164.142 35.3287C163.105 34.333 162.292 33.1646 161.703 31.8235C161.134 30.4824 160.85 29.0092 160.85 27.4039C160.85 25.7986 161.134 24.3254 161.703 22.9843C162.292 21.6432 163.105 20.4748 164.142 19.4791C165.198 18.4834 166.428 17.7214 167.83 17.1931C169.232 16.6445 170.766 16.3702 172.432 16.3702C174.281 16.3702 175.947 16.6953 177.431 17.3455C178.935 17.9754 180.194 18.9102 181.21 20.1497L178.04 23.0758C177.309 22.2426 176.496 21.6229 175.602 21.2165C174.708 20.7898 173.733 20.5764 172.676 20.5764C171.68 20.5764 170.766 20.739 169.933 21.0641C169.1 21.3892 168.378 21.8566 167.769 22.4662C167.159 23.0758 166.682 23.7971 166.336 24.6302C166.011 25.4634 165.848 26.3879 165.848 27.4039C165.848 28.4199 166.011 29.3445 166.336 30.1776C166.682 31.0107 167.159 31.7321 167.769 32.3417C168.378 32.9513 169.1 33.4186 169.933 33.7438C170.766 34.0689 171.68 34.2314 172.676 34.2314C173.733 34.2314 174.708 34.0282 175.602 33.6218C176.496 33.1951 177.309 32.555 178.04 31.7016L181.21 34.6277C180.194 35.8672 178.935 36.8121 177.431 37.4623C175.947 38.1126 174.271 38.4377 172.402 38.4377ZM181.354 38.0719L190.863 16.7359H195.74L205.281 38.0719H200.099L192.296 19.2353H194.247L186.413 38.0719H181.354ZM186.109 33.4999L187.419 29.7509H198.392L199.733 33.4999H186.109Z" fill="#E2181A"/>
<path d="M52.5989 22.8317C52.083 22.6501 51.5289 22.5546 50.9509 22.5546C49.5178 22.5546 48.2233 23.1589 47.3038 24.119C47.3038 24.119 47.3038 24.1166 47.3038 24.1142C47.299 24.119 47.2966 24.1238 47.2918 24.1286C47.0578 24.3722 47.0052 24.4271 46.9909 24.4677C47.3229 24.334 47.6883 24.2647 48.0513 24.248C48.5529 24.2313 49.0593 24.3077 49.5369 24.4606C50.4995 24.7615 51.3712 25.3347 52.0519 26.0895C52.3863 26.474 52.6729 26.9015 52.8831 27.3697C53.0861 27.8402 53.2247 28.3441 53.2485 28.8553C53.3178 29.8823 52.9452 30.8806 52.3624 31.6473C52.7159 30.7445 52.9022 29.8058 52.7541 28.9054C52.6108 28.0098 52.1809 27.1834 51.5743 26.5098C50.9748 25.8291 50.2081 25.287 49.365 24.9239C48.5816 24.5967 47.7122 24.4223 46.838 24.5991C44.8795 25.2917 43.4751 27.1547 43.4751 29.352C43.4751 31.1219 44.3875 32.6791 45.768 33.5796C44.4496 34.6687 42.1973 36.3573 40.5278 36.7538C40.5278 36.7538 40.0501 36.8302 39.5533 36.9926C39.742 35.4831 39.5247 33.8972 38.961 32.6075C38.4308 31.3918 37.5232 30.5295 36.4364 29.9778C36.4603 28.8242 36.2716 27.6993 35.9277 26.9111C35.0631 24.9287 33.2431 24.0689 31.2918 23.6963C31.1246 22.7099 30.8046 21.7975 30.3961 21.1598C29.6915 20.0611 28.6048 19.1798 27.3819 18.6686C27.4536 18.4298 27.6781 18.1886 28.3779 18.6424L30.0546 19.7649C30.0546 19.7649 32.0418 20.9974 32.7033 19.4138L34.2702 16.6886C34.2702 16.6886 35.6316 17.3885 35.9277 16.8726C35.9277 16.8726 35.8967 15.8861 36.0018 14.7373C36.0877 13.7724 37.2557 12.2701 37.676 11.2383C37.676 11.2383 37.8862 10.7725 38.0892 10.0441C38.3185 9.22005 38.5406 8.05211 38.4356 6.83163C38.3758 6.15093 38.2134 5.45351 37.891 4.78714C37.891 4.78714 37.7334 4.23064 37.1769 3.48545C36.6872 2.62801 35.9205 1.8661 35.0798 1.31916C32.5887 -0.302581 29.2664 -0.355127 26.5532 0.757877C23.4721 2.02135 21.1649 8.09988 21.4109 12.0002C20.8496 12.325 20.3528 12.6498 19.9826 12.9006C19.3377 13.3377 18.6833 13.8488 18.0647 14.4173C16.357 14.3384 14.6278 14.5152 12.9917 15.0072C11.038 15.5924 9.11531 16.7794 7.74197 18.3653C6.50954 18.6949 5.31055 19.4043 4.38385 20.1089C2.47311 21.561 1.05678 23.5912 0.407125 25.9079C-0.450318 28.9627 -0.0514515 34.3749 2.54954 37.0165C0.342638 39.2879 -0.18998 42.8777 0.5361 46.1379C1.08544 48.5979 2.38951 50.8693 3.75091 52.9592C4.43161 54.0029 5.24845 55.0108 5.78585 56.1358C5.89572 56.3651 5.9817 56.6063 6.06052 56.8475C6.12262 57.502 6.14172 58.1755 6.09873 58.861C6.09873 58.861 6.01514 59.6253 5.98648 60.5377C5.98409 60.5496 5.98409 60.5592 5.98409 60.5735V60.595H5.9817C5.92677 60.8983 5.90527 61.2327 5.90527 61.5551C5.90527 61.9014 5.93632 62.2502 6.00081 62.5917C6.06052 62.938 6.17277 63.2724 6.31608 63.5948C6.45938 63.9197 6.66718 64.2134 6.89646 64.4881C6.62896 64.2493 6.3734 63.9841 6.17755 63.6737C5.97931 63.3608 5.81212 63.0264 5.6927 62.6777C5.57089 62.3242 5.48491 61.9612 5.42759 61.5933C5.37743 61.2184 5.34399 60.8553 5.36071 60.4541C5.36071 60.4541 5.20785 60.4278 5.08365 60.4182C1.76614 60.2104 0.786884 63.7931 1.24785 65.7468C1.78524 68.0062 3.70315 70.3803 5.8981 70.3851C7.99514 70.3875 9.33026 69.2649 9.81989 68.7467H9.82228C10.5388 68.1137 10.8374 67.027 10.577 65.7253C11.4966 66.5254 12.5833 67.0151 13.7082 67.0151C15.5736 67.0151 17.064 66.0931 17.7041 65.7062C17.7232 65.6966 17.7423 65.6847 17.7614 65.6752C17.8187 65.6393 17.8689 65.6107 17.9071 65.5892C18.1913 65.4387 18.3274 65.3097 18.3633 65.1784C19.0822 64.3567 19.2924 63.0264 18.8123 61.4787C18.7359 61.2231 18.6332 60.9747 18.5257 60.7311C18.6045 60.7622 18.6809 60.7908 18.7621 60.8243C18.9365 60.8935 19.1156 60.958 19.2948 61.0225C19.3139 61.0297 19.3306 61.0344 19.3497 61.0416C19.3569 61.0488 19.3616 61.0488 19.3712 61.0512C19.5217 61.1061 19.6745 61.1586 19.8298 61.2112C19.8393 61.2136 19.8489 61.2184 19.8584 61.2207C19.985 61.2661 20.1164 61.3091 20.2477 61.3473C20.2645 61.3545 20.2764 61.3593 20.2931 61.364C20.4651 61.419 20.637 61.4715 20.8114 61.5241C21.0431 61.5933 21.2795 61.6602 21.5184 61.7247C21.5494 61.7343 21.5829 61.7438 21.6139 61.751C21.8408 61.8107 22.0725 61.868 22.3018 61.9229C22.5239 61.9779 22.7508 62.0256 22.9777 62.0734C23.0422 62.0901 23.1019 62.1021 23.1664 62.1116C23.3861 62.157 23.6059 62.1976 23.8256 62.2358C24.0191 62.2716 24.2149 62.3027 24.4084 62.3314C24.4872 62.3481 24.5708 62.36 24.6544 62.3696L24.7117 62.3791C24.9195 62.4078 25.1297 62.4341 25.3351 62.4579C25.3613 62.4603 25.3852 62.4651 25.4115 62.4675H25.4139C25.6312 62.4938 25.8462 62.5153 26.0635 62.5344C26.0922 62.5368 26.1185 62.5368 26.1471 62.5415C26.1639 62.5439 26.1782 62.5487 26.1973 62.5487C26.4361 62.5678 26.6726 62.5869 26.9114 62.5989C26.9425 62.6013 26.9759 62.606 27.007 62.606C27.2577 62.6227 27.5109 62.6323 27.7617 62.6371C28.0292 62.6466 28.2967 62.649 28.5666 62.649C33.4342 62.649 37.9985 61.3688 41.9441 59.1285C40.0382 56.6899 37.4276 54.9822 34.3108 50.0071C33.9883 48.629 29.8253 43.2073 29.5841 41.4757C29.7966 40.2026 29.2497 38.8006 28.9416 38.6C28.9416 38.6 29.8802 37.0595 29.7632 35.87C29.8778 36.5173 30.1525 38.0531 30.2672 38.3421C30.2672 38.3421 30.967 43.4604 35.4978 45.4476C35.4978 45.4476 37.0144 46.1737 38.5048 45.6339C40.4394 46.2501 42.8016 45.1992 44.151 43.6802C45.1303 42.5767 45.7608 41.3037 46.3675 39.9734C46.6828 39.2831 47.0792 38.5618 47.373 37.8214C48.0131 36.8063 48.6628 35.6551 49.3076 34.3438C50.6356 34.1408 51.794 33.4148 52.5631 32.3853C53.6761 32.0104 54.6171 31.258 55.2262 30.2835C55.7158 29.5073 56 28.5878 56 27.6037C56 25.3944 54.5837 23.5195 52.6037 22.8364L52.5989 22.8317ZM13.6748 53.0237C13.2138 54.0364 12.9081 55.1231 12.7362 56.2433C12.7123 56.2433 12.686 56.2409 12.6621 56.2409C12.686 56.2409 12.7123 56.2409 12.7362 56.2433C12.7362 56.2433 12.7362 56.2457 12.7362 56.2481C12.1104 56.2433 11.6876 56.3699 11.3652 56.5156C11.2314 56.5753 11.1144 56.6398 11.0045 56.6971C10.8899 56.7377 10.7776 56.7831 10.6702 56.8308C10.5579 57.0052 10.4528 57.201 10.3645 57.3921C10.2403 57.6596 10.1352 57.9367 10.0587 58.2209C9.98947 58.5075 9.94648 58.8013 9.94648 59.0998C9.95364 59.3984 10.0134 59.6945 10.1208 59.9812C9.96558 59.7208 9.84616 59.427 9.78645 59.1189C9.73152 58.8061 9.71958 58.4884 9.74585 58.1707C9.77212 57.8531 9.83183 57.5402 9.91543 57.2321C9.97514 57.0147 10.042 56.8117 10.128 56.6015C9.95364 56.1931 9.78884 55.7728 9.63359 55.35C9.68136 54.6621 9.74107 53.9695 9.93215 53.3127C10.4839 51.4043 10.6821 49.4124 10.8899 47.4372C11.1622 44.8696 10.46 42.7177 8.92662 41.072C9.13203 40.6756 9.38998 40.1095 9.62165 39.4192C10.1996 40.4391 10.878 41.3849 11.4775 42.1683C12.2298 43.1547 13.1279 44.1388 14.1501 44.9389C14.1811 45.8632 13.9519 46.7732 13.9399 47.6951C13.928 48.4045 14.1668 50.4179 14.3555 51.7769C14.0904 52.1949 13.8587 52.6153 13.67 53.0261L13.6748 53.0237Z" fill="#E2181A"/>
</svg>
