<svg width="74" height="80" viewBox="0 0 74 80" fill="none" xmlns="http://www.w3.org/2000/svg">
<path d="M36.3731 80H30.1231C27.0214 80 24.4981 77.4767 24.4981 74.375V35.625C24.4981 32.5233 27.0214 30 30.1231 30H36.3731C39.4748 30 41.9981 32.5233 41.9981 35.625V74.375C41.9981 77.4767 39.4747 80 36.3731 80Z" fill="#E2181A"/>
<path d="M12.6231 80H6.37311C3.27139 80 0.748108 77.4767 0.748108 74.375V48.125C0.748108 45.0233 3.27139 42.5 6.37311 42.5H12.6231C15.7248 42.5 18.2481 45.0233 18.2481 48.125V74.375C18.2481 77.4767 15.7247 80 12.6231 80Z" fill="#E2181A"/>
<path d="M60.1231 80H53.8731C50.7714 80 48.2481 77.4767 48.2481 74.375V22.5H44.8137C43.2081 22.5 41.7937 21.5938 41.1228 20.135C40.4519 18.6763 40.6842 17.0128 41.7292 15.7936C41.7411 15.7797 41.7533 15.7658 41.7655 15.7522L55.1362 0.831563C55.6105 0.302344 56.2875 0 56.9981 0C57.7087 0 58.3856 0.302344 58.86 0.831563L72.2308 15.7522C72.2431 15.7658 72.2552 15.7797 72.267 15.7936C73.312 17.0127 73.5444 18.6763 72.8734 20.135C72.2025 21.5938 70.7881 22.5 69.1825 22.5H65.7481V74.375C65.7481 77.4767 63.2247 80 60.1231 80Z" fill="#E2181A"/>
</svg>
